# xmcd
#
# Track frame offsets:
#	150
#	12230
#	22849
#	35869
#	49896
#	64213
#	77354
#	90812
#	104546
#	114872
#	127379
#	143081
#	152648
# Disc length: 2209 seconds
# Revision: 2
# Processed by: cddbd v1.5.1PL0 Copyright (c) Steve Scherf et al.
#
# Submitted via: libkcddb 0.20
#
DISCID=a0089f0d
DTITLE=Kenny and Amanda Smith - Slowly But Surely
DYEAR=1900
DGENRE=Bluegrass
TTITLE0=Amy Brown
TTITLE1=Slowly But Surely
TTITLE2=It's Over
TTITLE3=Only Sailors
TTITLE4=I Hung My Head And Cried
TTITLE5=Mary Goes Around
TTITLE6=Winter's Come And Gone
TTITLE7=Crying For Crumbs
TTITLE8=Nancy Jane
TTITLE9=Because Of You
TTITLE10=Come Along Jody
TTITLE11=River Of Regret
TTITLE12=Will I See You Again
EXTD=
EXTT0=
EXTT1=
EXTT2=
EXTT3=
EXTT4=
EXTT5=
EXTT6=
EXTT7=
EXTT8=
EXTT9=
EXTT10=
EXTT11=
EXTT12=
PLAYORDER=
